<?xml version="1.0" standalone="no"?>
<!DOCTYPE svg PUBLIC "-//W3C//DTD SVG 20010904//EN"
 "http://www.w3.org/TR/2001/REC-SVG-20010904/DTD/svg10.dtd">
<svg version="1.0" xmlns="http://www.w3.org/2000/svg"
 width="100.000000pt" height="100.000000pt" viewBox="0 0 100.000000 100.000000"
 preserveAspectRatio="xMidYMid meet">

<g transform="translate(0.000000,100.000000) scale(0.100000,-0.100000)"
fill="#000000" stroke="none">
<path d="M17 722 c-15 -16 -17 -52 -17 -300 0 -269 1 -283 20 -302 15 -15 33
-20 70 -20 43 0 52 -3 59 -23 18 -45 59 -72 111 -72 52 0 93 27 110 71 8 20
17 22 127 26 142 5 162 2 173 -26 17 -44 58 -71 110 -71 52 0 93 27 111 73 6
16 17 22 39 22 17 0 39 9 51 21 19 19 20 30 17 149 l-3 128 -40 58 c-22 32
-58 78 -81 101 l-41 43 -106 0 -107 0 0 48 c0 27 -7 57 -16 70 -15 22 -17 22
-293 22 -257 0 -279 -1 -294 -18z m558 -302 l0 -275 -98 -3 c-93 -3 -98 -2
-106 20 -18 46 -59 73 -111 73 -52 0 -93 -27 -111 -73 -8 -20 -15 -23 -56 -20
l-48 3 -3 265 c-1 146 0 270 3 278 3 10 61 12 267 10 l263 -3 0 -275z m260
120 c18 -20 17 -20 -38 -20 -78 0 -97 -19 -97 -100 0 -92 13 -100 150 -100
l111 0 -3 -87 c-3 -88 -3 -88 -30 -91 -22 -3 -30 2 -37 20 -18 46 -59 73 -111
73 -52 0 -93 -27 -111 -73 -6 -15 -16 -22 -27 -20 -15 3 -17 22 -20 198 -1
107 0 200 2 207 4 9 32 13 99 13 81 0 96 -3 112 -20z m79 -94 c14 -19 30 -46
36 -61 l10 -26 -108 3 -107 3 -3 44 c-5 68 -1 71 76 71 67 0 70 -1 96 -34z
m-599 -271 c33 -32 33 -78 0 -110 -32 -33 -78 -33 -110 0 -16 15 -25 36 -25
55 0 19 9 40 25 55 15 16 36 25 55 25 19 0 40 -9 55 -25z m520 0 c50 -49 15
-135 -55 -135 -41 0 -80 39 -80 80 0 41 39 80 80 80 19 0 40 -9 55 -25z"/>
</g>
</svg>
