<?xml version="1.0" encoding="UTF-8"?>
<svg version="1.1" xmlns="http://www.w3.org/2000/svg" width="100" height="100">
<path d="M0 0 C29.04 0 58.08 0 88 0 C88 11.13467446 88 11.13467446 84.08862305 15.14575195 C83.54375244 15.65452881 82.99888184 16.16330566 82.4375 16.6875 C81.88682861 17.24074951 81.33615723 17.79399902 80.76879883 18.36401367 C79.20011353 19.93269897 77.60475408 21.468382 76 23 C74.7268111 24.26847339 73.45542193 25.53876192 72.1875 26.8125 C71.65769531 27.33199219 71.12789063 27.85148437 70.58203125 28.38671875 C68.19240556 30.82354692 65.98411386 33.40891981 63.7734375 36.0078125 C62 38 62 38 59.43334961 39.92407227 C55.82811465 44.48134679 56.27169477 48.54856159 56.29296875 54.20703125 C56.27784744 55.28756271 56.26272614 56.36809418 56.24714661 57.48136902 C56.20423242 60.92529102 56.19542756 64.36833713 56.1875 67.8125 C56.16435875 70.15041397 56.1389942 72.48830707 56.11132812 74.82617188 C56.04843903 80.55078952 56.01353435 86.27506438 56 92 C47.51397332 92.11577649 39.92561466 88.78116481 33.78320312 82.88183594 C29.17423444 75.43327812 30.71630166 64.9332413 31.35644531 56.51879883 C32.20551279 47.51138577 32.20551279 47.51138577 28.68212891 39.54394531 C26.03542259 36.72192898 23.04380486 34.38286899 20 32 C18.75539881 30.65773984 17.53710205 29.28928896 16.375 27.875 C13.81707105 24.87328578 11.11960866 22.08309342 8.3125 19.3125 C7.55710937 18.55453125 6.80171875 17.7965625 6.0234375 17.015625 C4.51385304 15.51186905 2.98135747 14.03104735 1.4375 12.5625 C0 10 0 10 0 0 Z M4 4 C5.13429108 8.5371643 6.30303986 9.59865413 9.625 12.75 C12.73667907 15.76457703 15.75311697 18.76395381 18.5625 22.0625 C21.80649281 25.85997025 25.30585744 29.34512259 28.88671875 32.82421875 C29.58410156 33.54222656 30.28148438 34.26023437 31 35 C32.04631592 36.0526001 32.04631592 36.0526001 33.11376953 37.12646484 C35.55247771 40.84165967 35.44860832 43.87113822 35.29296875 48.15234375 C35.2830946 49.74934086 35.27467587 51.34634751 35.26757812 52.94335938 C35.23441795 55.44363632 35.18737469 57.94174118 35.11352539 60.44116211 C34.46547435 69.99178977 34.46547435 69.99178977 37.95385742 78.39941406 C40.2624935 79.94177447 42.41729295 81.00196861 45 82 C45.969375 82.61875 46.93875 83.2375 47.9375 83.875 C49.90107048 85.15961738 49.90107048 85.15961738 52 85 C51.96745117 83.70489502 51.93490234 82.40979004 51.90136719 81.07543945 C51.79543685 76.21259266 51.77032781 71.35194466 51.76806641 66.48803711 C51.75615322 64.39405256 51.72309941 62.30006678 51.66748047 60.20678711 C51.18016123 40.94848264 51.18016123 40.94848264 57.1942749 33.94499207 C59.67107007 31.44084384 62.26325382 29.22070765 65 27 C66.28629004 25.7448137 67.56225411 24.47859253 68.8125 23.1875 C69.34230469 22.66800781 69.87210937 22.14851563 70.41796875 21.61328125 C72.85122167 19.13196407 75.09492794 16.49361683 77.35546875 13.85546875 C78.81809414 12.2052382 80.3307136 10.6947109 81.9375 9.1875 C84.34300643 7.13728919 84.34300643 7.13728919 84 4 C57.6 4 31.2 4 4 4 Z " fill="#000000" transform="translate(6,4)"/>
</svg>
