<?xml version="1.0" standalone="no"?>
<!DOCTYPE svg PUBLIC "-//W3C//DTD SVG 20010904//EN"
 "http://www.w3.org/TR/2001/REC-SVG-20010904/DTD/svg10.dtd">
<svg version="1.0" xmlns="http://www.w3.org/2000/svg"
 width="100.000000pt" height="100.000000pt" viewBox="0 0 100.000000 100.000000"
 preserveAspectRatio="xMidYMid meet">

<g transform="translate(0.000000,100.000000) scale(0.100000,-0.100000)"
fill="#000000" stroke="none">
<path d="M20 820 c-19 -19 -20 -33 -20 -280 0 -247 1 -261 20 -280 15 -15 33
-20 70 -20 43 0 52 -3 59 -22 18 -46 59 -73 111 -73 52 0 93 27 110 71 8 20
17 22 127 26 142 5 162 2 173 -26 17 -44 58 -71 110 -71 52 0 93 27 111 73 6
16 17 22 39 22 17 0 39 9 51 21 19 19 20 30 17 149 l-3 128 -40 58 c-22 32
-58 78 -81 101 l-41 43 -106 0 -107 0 0 30 c0 17 -9 39 -20 50 -19 19 -33 20
-290 20 -257 0 -271 -1 -290 -20z m555 -280 l0 -255 -98 -3 c-93 -3 -98 -2
-106 20 -18 46 -59 73 -111 73 -52 0 -93 -27 -111 -73 -8 -20 -15 -23 -56 -20
l-48 3 -3 245 c-1 134 0 250 3 257 3 11 60 13 267 11 l263 -3 0 -255z m260
140 c18 -20 17 -20 -38 -20 -78 0 -97 -19 -97 -100 0 -92 13 -100 150 -100
l111 0 -3 -87 c-3 -88 -3 -88 -30 -91 -22 -3 -30 2 -37 20 -18 46 -59 73 -111
73 -52 0 -93 -27 -111 -73 -6 -15 -16 -22 -27 -20 -15 3 -17 22 -20 198 -1
107 0 200 2 207 4 9 32 13 99 13 81 0 96 -3 112 -20z m79 -94 c14 -19 30 -46
36 -61 l10 -26 -108 3 -107 3 -3 44 c-5 68 -1 71 76 71 67 0 70 -1 96 -34z
m-599 -271 c33 -32 33 -78 0 -110 -49 -50 -135 -15 -135 55 0 19 9 40 25 55
15 16 36 25 55 25 19 0 40 -9 55 -25z m520 0 c50 -49 15 -135 -55 -135 -41 0
-80 39 -80 80 0 41 39 80 80 80 19 0 40 -9 55 -25z"/>
<path d="M100 539 c0 -44 3 -60 13 -57 6 3 13 14 15 26 2 14 11 22 23 22 10 0
19 5 19 10 0 6 -9 10 -20 10 -11 0 -20 7 -20 15 0 9 9 15 25 15 14 0 25 5 25
10 0 6 -18 10 -40 10 l-40 0 0 -61z"/>
<path d="M200 546 c0 -31 5 -56 10 -56 6 0 10 9 10 20 0 14 7 20 21 20 12 0
23 -8 26 -20 10 -38 22 -20 20 33 l-2 52 -42 3 -43 3 0 -55z m68 17 c2 -8 -6
-13 -22 -13 -17 0 -26 5 -26 16 0 19 41 16 48 -3z"/>
<path d="M320 539 l0 -60 43 3 c49 4 56 22 10 26 -41 4 -43 22 -3 22 36 0 40
17 5 22 -35 4 -36 22 -2 26 42 5 32 22 -13 22 l-40 0 0 -61z"/>
<path d="M432 543 l3 -58 43 -3 c33 -2 42 0 42 12 0 11 -10 16 -30 16 -16 0
-30 5 -30 10 0 6 11 10 25 10 14 0 25 5 25 10 0 6 -11 10 -25 10 -16 0 -25 6
-25 15 0 10 10 15 30 15 17 0 30 5 30 10 0 6 -20 10 -45 10 l-46 0 3 -57z"/>
</g>
</svg>
