<?xml version="1.0" encoding="UTF-8"?>
<svg version="1.1" xmlns="http://www.w3.org/2000/svg" width="100" height="100">
<path d="M0 0 C1.3391418 0.95019988 2.67324756 1.90757635 4 2.875 C4.99 3.535 5.98 4.195 7 4.875 C5.67879172 7.80730193 4.25361803 9.86164899 1.9609375 12.109375 C1.38085938 12.68300781 0.80078125 13.25664062 0.203125 13.84765625 C-0.40015625 14.43417969 -1.0034375 15.02070313 -1.625 15.625 C-2.23601562 16.22699219 -2.84703125 16.82898438 -3.4765625 17.44921875 C-4.97988624 18.92905305 -6.48934856 20.40264676 -8 21.875 C-10.01478239 20.87212626 -12.0216773 19.86344439 -14.0078125 18.8046875 C-19.7143663 15.9619393 -24.65129126 14.75863684 -31 15.875 C-39.19300589 18.68164196 -43.62855694 22.62275727 -47.8125 30.125 C-49.99009023 37.00160073 -49.91959392 42.58760609 -46.875 49.1875 C-43.14499301 55.87217545 -38.39174711 59.53428008 -31 61.875 C-23.95783153 62.83423225 -18.02416209 61.69849879 -12 57.875 C-9.81544897 55.58122142 -8.40229229 53.67958458 -7 50.875 C-13.93 50.875 -20.86 50.875 -28 50.875 C-28 43.615 -28 36.355 -28 28.875 C-12.82 28.875 2.36 28.875 18 28.875 C20.6824083 42.28704151 18.72620267 55.54938271 11.72265625 67.37109375 C5.08946597 77.01253359 -3.66853797 82.24138803 -15 84.875 C-31.96659752 86.47206362 -44.67941433 83.93146853 -58.08984375 73.203125 C-65.23333577 66.78632219 -71.36508614 56.46331525 -72.17700195 46.75952148 C-72.63895149 29.69683572 -70.19661518 17.77123186 -58.5 4.75 C-42.88185614 -10.35359261 -17.7559178 -11.55409005 0 0 Z M-58.25 12.25 C-66.35461824 22.22660886 -67.96272919 33.20127254 -67.24267578 45.671875 C-66.08472317 56.18431396 -59.13156699 65.98788822 -51.02734375 72.49609375 C-41.26526476 79.13581221 -30.13744239 81.7309073 -18.4375 80.375 C-8.98840404 78.56973136 -0.4605703 74.77812938 5.5390625 67.06640625 C11.99206389 57.38690417 14.63383583 47.49532353 14 35.875 C13.67 35.215 13.34 34.555 13 33.875 C0.79 33.875 -11.42 33.875 -24 33.875 C-24 37.835 -24 41.795 -24 45.875 C-15.75 45.875 -7.5 45.875 1 45.875 C-5.87491605 61.34356111 -5.87491605 61.34356111 -14.6875 65.375 C-23.27372623 68.29353517 -31.60279012 67.84733431 -39.81640625 64.0625 C-46.86191149 60.23095511 -51.18038712 54.55265285 -53.6171875 46.94921875 C-55.51534751 36.66429052 -53.50415946 28.18129861 -47.8125 19.5625 C-40.45984021 12.53662509 -33.04349427 10.5460629 -23.11328125 10.5703125 C-19.19549609 10.95373439 -16.34094906 12.18321616 -12.9375 14.09765625 C-10.46777821 15.08853253 -9.43930327 14.88975016 -7 13.875 C-5.25816939 12.49329272 -5.25816939 12.49329272 -3.75 10.8125 C-3.22921875 10.26464844 -2.7084375 9.71679688 -2.171875 9.15234375 C-1.78515625 8.73082031 -1.3984375 8.30929688 -1 7.875 C-1.70892339 4.66357754 -1.70892339 4.66357754 -4.6171875 3.3046875 C-5.69226563 2.79164062 -6.76734375 2.27859375 -7.875 1.75 C-9.47988281 0.97269531 -9.47988281 0.97269531 -11.1171875 0.1796875 C-27.67366254 -7.31335134 -46.52989012 -0.57798096 -58.25 12.25 Z " fill="#000000" transform="translate(78,11.125)"/>
</svg>
