<?xml version="1.0" encoding="UTF-8"?>
<svg version="1.1" xmlns="http://www.w3.org/2000/svg" width="100" height="100">
<path d="M0 0 C33 0 66 0 100 0 C100 23.76 100 47.52 100 72 C67 72 34 72 0 72 C0 48.24 0 24.48 0 0 Z M4 4 C4 25.12 4 46.24 4 68 C34.36 68 64.72 68 96 68 C96 46.88 96 25.76 96 4 C65.64 4 35.28 4 4 4 Z " fill="#000000" transform="translate(0,14)"/>
<path d="M0 0 C10.17238265 5.31920799 20.18510145 10.89128587 30.14086914 16.60620117 C31.5600061 17.4160144 31.5600061 17.4160144 33.0078125 18.2421875 C33.84973145 18.7254248 34.69165039 19.20866211 35.55908203 19.70654297 C36.76733643 20.3468042 36.76733643 20.3468042 38 21 C38.80099121 21.44996338 39.60198242 21.89992676 40.42724609 22.36352539 C44.22381562 23.30276023 45.85054279 21.91787277 49.15625 19.94140625 C49.73983276 19.60004135 50.32341553 19.25867645 50.92468262 18.90696716 C52.79370976 17.80898995 54.64674869 16.68686052 56.5 15.5625 C58.32052192 14.48013903 60.14405295 13.40297983 61.96777344 12.32601929 C63.1741862 11.61279758 64.37927426 10.89733023 65.58300781 10.17959595 C71.61949392 6.59174754 77.78843622 3.27406589 84 0 C84 2.31 84 4.62 84 7 C83.1843457 7.44802979 82.36869141 7.89605957 81.52832031 8.35766602 C78.44121419 10.05435107 75.35488756 11.75243837 72.26904297 13.45141602 C70.94479833 14.18015088 69.62026385 14.90835934 68.29541016 15.63598633 C67.0084615 16.34288117 65.72196116 17.05059282 64.43591309 17.75912476 C63.15532966 18.46419457 61.87350529 19.16701518 60.5904541 19.86758423 C57.52855356 21.55045225 54.52276395 23.27502528 51.58007812 25.15966797 C50.53787109 25.81725098 49.49566406 26.47483398 48.421875 27.15234375 C47.0620752 28.04747681 47.0620752 28.04747681 45.67480469 28.96069336 C43 30 43 30 39.99731445 29.36621094 C37.08985777 28.04095822 34.36509679 26.62456327 31.62109375 24.98828125 C30.62271484 24.39805176 29.62433594 23.80782227 28.59570312 23.19970703 C27.55349609 22.57692871 26.51128906 21.95415039 25.4375 21.3125 C17.04845322 16.35383836 8.64821867 11.49301985 0 7 C0 4.69 0 2.38 0 0 Z " fill="#000000" transform="translate(8,27)"/>
</svg>
