<?xml version="1.0" standalone="no"?>
<!DOCTYPE svg PUBLIC "-//W3C//DTD SVG 20010904//EN"
 "http://www.w3.org/TR/2001/REC-SVG-20010904/DTD/svg10.dtd">
<svg version="1.0" xmlns="http://www.w3.org/2000/svg"
 width="100.000000pt" height="100.000000pt" viewBox="0 0 100.000000 100.000000"
 preserveAspectRatio="xMidYMid meet">

<g transform="translate(0.000000,100.000000) scale(0.100000,-0.100000)"
fill="#000000" stroke="none">
<path d="M807 920 c-14 -11 -29 -20 -34 -20 -4 0 -153 -145 -329 -322 l-321
-323 -33 -88 c-22 -60 -29 -92 -22 -99 7 -7 39 0 99 22 l88 33 323 321 c177
176 322 325 322 329 0 5 9 20 20 34 27 35 26 78 -5 108 -30 31 -73 32 -108 5z
m81 -32 c17 -17 15 -43 -4 -58 -13 -11 -19 -9 -41 12 -16 16 -23 32 -20 42 7
19 48 21 65 4z m-75 -74 c20 -19 37 -38 37 -41 0 -4 -10 -17 -22 -30 l-22 -23
-43 42 -43 42 22 23 c12 13 24 23 27 23 3 0 23 -16 44 -36z m-78 -84 l39 -40
-254 -255 c-140 -140 -260 -255 -267 -255 -6 0 -13 12 -15 27 -2 22 -9 29 -31
31 -15 2 -27 9 -27 15 0 11 499 517 510 517 3 0 24 -18 45 -40z m-539 -534 c1
0 5 -11 8 -23 6 -19 2 -25 -19 -33 -54 -21 -66 -9 -45 45 8 21 14 25 33 19 12
-3 23 -7 23 -8z"/>
</g>
</svg>
