<?xml version="1.0" standalone="no"?>
<!DOCTYPE svg PUBLIC "-//W3C//DTD SVG 20010904//EN"
 "http://www.w3.org/TR/2001/REC-SVG-20010904/DTD/svg10.dtd">
<svg version="1.0" xmlns="http://www.w3.org/2000/svg"
 width="100.000000pt" height="100.000000pt" viewBox="0 0 100.000000 100.000000"
 preserveAspectRatio="xMidYMid meet">

<g transform="translate(0.000000,100.000000) scale(0.100000,-0.100000)"
fill="#000000" stroke="none">
<path d="M105 890 l-110 -110 112 -112 c89 -89 115 -110 125 -100 10 10 -6 31
-77 103 l-90 90 335 -3 335 -3 57 -28 c107 -53 163 -144 163 -267 0 -123 -56
-214 -163 -267 -56 -27 -61 -28 -264 -31 -201 -3 -208 -4 -208 -24 0 -19 5
-20 213 -16 208 3 213 4 268 31 67 32 142 109 172 175 34 73 31 198 -6 273
-32 67 -109 142 -175 172 -45 21 -62 22 -386 25 l-339 3 88 89 c76 76 96 110
67 110 -4 0 -57 -50 -117 -110z"/>
<path d="M0 140 c0 -13 7 -20 20 -20 13 0 20 7 20 20 0 13 -7 20 -20 20 -13 0
-20 -7 -20 -20z"/>
<path d="M80 140 c0 -13 7 -20 20 -20 13 0 20 7 20 20 0 13 -7 20 -20 20 -13
0 -20 -7 -20 -20z"/>
<path d="M160 140 c0 -13 7 -20 20 -20 13 0 20 7 20 20 0 13 -7 20 -20 20 -13
0 -20 -7 -20 -20z"/>
<path d="M240 140 c0 -13 7 -20 20 -20 13 0 20 7 20 20 0 13 -7 20 -20 20 -13
0 -20 -7 -20 -20z"/>
</g>
</svg>
