<?xml version="1.0" standalone="no"?>
<!DOCTYPE svg PUBLIC "-//W3C//DTD SVG 20010904//EN"
 "http://www.w3.org/TR/2001/REC-SVG-20010904/DTD/svg10.dtd">
<svg version="1.0" xmlns="http://www.w3.org/2000/svg"
 width="96.000000pt" height="96.000000pt" viewBox="0 0 96.000000 96.000000"
 preserveAspectRatio="xMidYMid meet">

<g transform="translate(0.000000,96.000000) scale(0.100000,-0.100000)"
fill="#000000" stroke="none">
<path d="M252 789 c-119 -21 -212 -86 -212 -149 0 -67 97 -130 233 -151 87
-14 263 -6 372 16 67 14 148 40 218 70 16 7 17 -4 17 -139 l0 -145 -30 -16
-29 -15 -3 77 c-2 61 -6 78 -18 78 -12 0 -16 -18 -18 -87 -1 -49 -6 -88 -10
-88 -4 0 -17 -3 -29 -6 -20 -5 -22 -2 -25 37 -2 31 -7 44 -18 44 -11 0 -16
-13 -18 -48 -3 -41 -7 -49 -28 -57 -49 -19 -53 -15 -56 58 -2 52 -6 67 -18 67
-12 0 -16 -16 -18 -71 l-3 -72 -39 -4 c-38 -3 -39 -3 -42 32 -4 50 -32 48 -36
-2 -3 -37 -4 -38 -42 -38 l-39 0 -3 67 c-2 53 -6 68 -18 68 -11 0 -16 -15 -18
-64 l-3 -64 -56 7 c-57 7 -121 31 -158 59 -18 13 -21 30 -25 139 -4 100 -8
123 -20 123 -12 0 -15 -21 -18 -121 -3 -120 -2 -122 25 -154 51 -62 178 -100
328 -100 163 0 366 42 470 98 l50 27 3 179 c1 99 -1 183 -6 188 -5 5 -42 -7
-83 -26 -219 -100 -552 -115 -695 -31 -76 45 -70 96 18 139 137 66 378 56 422
-16 26 -43 -47 -87 -156 -95 -48 -3 -87 0 -112 9 -86 29 -41 63 83 63 57 0 86
4 89 13 12 36 -157 41 -217 6 -54 -32 -53 -76 1 -109 27 -16 51 -20 123 -20
108 1 168 17 207 55 55 55 22 133 -68 160 -53 16 -207 21 -272 9z"/>
</g>
</svg>
