<?xml version="1.0" encoding="UTF-8"?>
<svg version="1.1" xmlns="http://www.w3.org/2000/svg" width="100" height="100">
<path d="M0 0 C0.99 0.33 1.98 0.66 3 1 C3.33 21.79 3.66 42.58 4 64 C7.63 60.37 11.26 56.74 15 53 C16.65 53.33 18.3 53.66 20 54 C17.83384341 58.82604496 14.35927312 62.08472271 10.6875 65.8125 C9.69073242 66.87114258 9.69073242 66.87114258 8.67382812 67.95117188 C8.02220703 68.61310547 7.37058594 69.27503906 6.69921875 69.95703125 C6.10971436 70.56522705 5.52020996 71.17342285 4.9128418 71.80004883 C3 73 3 73 0.51806641 72.91503906 C-2.40587846 71.852508 -3.83043295 70.63036597 -5.98828125 68.40234375 C-6.69404297 67.68369141 -7.39980469 66.96503906 -8.12695312 66.22460938 C-8.84818359 65.46986328 -9.56941406 64.71511719 -10.3125 63.9375 C-11.05306641 63.17888672 -11.79363281 62.42027344 -12.55664062 61.63867188 C-14.38043834 59.76780841 -16.19424304 57.88825508 -18 56 C-17.67 55.01 -17.34 54.02 -17 53 C-12.07215495 53.417313 -10.0222855 55.54985927 -6.6875 59.0625 C-5.80449219 59.98160156 -4.92148438 60.90070313 -4.01171875 61.84765625 C-3.34785156 62.55792969 -2.68398437 63.26820312 -2 64 C-1.98969254 63.21295181 -1.97938507 62.42590363 -1.96876526 61.61500549 C-1.87095812 54.21301893 -1.76846814 46.81111932 -1.66066074 39.40927219 C-1.60539706 35.60352595 -1.55197171 31.79777208 -1.50268555 27.99194336 C-1.45509259 24.32200665 -1.40275191 20.65216609 -1.34705925 16.98234367 C-1.32661263 15.57927773 -1.30790343 14.1761854 -1.29092598 12.7730732 C-1.26693313 10.81423074 -1.23629801 8.85547299 -1.20532227 6.89672852 C-1.18977798 5.77976089 -1.1742337 4.66279327 -1.15821838 3.51197815 C-1 1 -1 1 0 0 Z " fill="#000000" transform="translate(73,21)"/>
<path d="M0 0 C3.2586636 1.4264578 5.4024854 3.16704162 7.890625 5.6953125 C8.95410156 6.76845703 8.95410156 6.76845703 10.0390625 7.86328125 C10.76867187 8.60964844 11.49828125 9.35601562 12.25 10.125 C12.99507812 10.87910156 13.74015625 11.63320313 14.5078125 12.41015625 C16.3431342 14.26900772 18.1736191 16.13237005 20 18 C19.505 19.485 19.505 19.485 19 21 C14 20 14 20 4 10 C3.67 30.79 3.34 51.58 3 73 C1.68 73 0.36 73 -1 73 C-1.33 52.21 -1.66 31.42 -2 10 C-5.63 13.63 -9.26 17.26 -13 21 C-14.65 20.67 -16.3 20.34 -18 20 C-16.5735422 16.7413364 -14.83295838 14.5975146 -12.3046875 12.109375 C-11.23154297 11.04589844 -11.23154297 11.04589844 -10.13671875 9.9609375 C-9.39035156 9.23132812 -8.64398438 8.50171875 -7.875 7.75 C-7.12089844 7.00492188 -6.36679687 6.25984375 -5.58984375 5.4921875 C-3.73099228 3.6568658 -1.86762995 1.8263809 0 0 Z " fill="#000000" transform="translate(25,5)"/>
<path d="M0 0 C1.32 0 2.64 0 4 0 C4 1.32 4 2.64 4 4 C2.68 4 1.36 4 0 4 C0 2.68 0 1.36 0 0 Z " fill="#000000" transform="translate(24,90)"/>
<path d="M0 0 C1.32 0 2.64 0 4 0 C4 1.32 4 2.64 4 4 C2.68 4 1.36 4 0 4 C0 2.68 0 1.36 0 0 Z " fill="#000000" transform="translate(24,82)"/>
<path d="M0 0 C1.32 0 2.64 0 4 0 C4 1.32 4 2.64 4 4 C2.68 4 1.36 4 0 4 C0 2.68 0 1.36 0 0 Z " fill="#000000" transform="translate(72,14)"/>
<path d="M0 0 C1.32 0 2.64 0 4 0 C4 1.32 4 2.64 4 4 C2.68 4 1.36 4 0 4 C0 2.68 0 1.36 0 0 Z " fill="#000000" transform="translate(72,6)"/>
</svg>
