<?xml version="1.0" encoding="UTF-8"?>
<svg version="1.1" xmlns="http://www.w3.org/2000/svg" width="100" height="100">
<path d="M0 0 C6.15173121 1.59602383 9.9819461 6.50684855 14.3125 10.875 C15.14845703 11.69097656 15.98441406 12.50695313 16.84570312 13.34765625 C17.63525391 14.13785156 18.42480469 14.92804687 19.23828125 15.7421875 C19.96055908 16.4626123 20.68283691 17.18303711 21.42700195 17.92529297 C23 20 23 20 23 24 C18 23 18 23 4 10 C3.67 38.38 3.34 66.76 3 96 C1.68 96 0.36 96 -1 96 C-1.33 67.62 -1.66 39.24 -2 10 C-4.64 12.64 -7.28 15.28 -10 18 C-16.42857143 24 -16.42857143 24 -21 24 C-20.49242185 19.75585152 -19.32370004 17.83358646 -16.2890625 14.86328125 C-15.53882813 14.12142578 -14.78859375 13.37957031 -14.015625 12.61523438 C-12.83226562 11.47538086 -12.83226562 11.47538086 -11.625 10.3125 C-10.84382813 9.54099609 -10.06265625 8.76949219 -9.2578125 7.97460938 C-6.26482758 5.04056166 -3.49504468 2.33002979 0 0 Z " fill="#000000" transform="translate(49,2)"/>
</svg>
